<svg width="16" height="16" viewBox="0 0 16 16" fill="none" xmlns="http://www.w3.org/2000/svg">
<path d="M14.8536 6.85355C15.0488 6.65829 15.0488 6.34171 14.8536 6.14645L11.8536 3.14645C11.6583 2.95118 11.3417 2.95118 11.1464 3.14645L8.14645 6.14645C7.95118 6.34171 7.95118 6.65829 8.14645 6.85355C8.34171 7.04882 8.65829 7.04882 8.85355 6.85355L11 4.70711V11.5C11 11.7761 11.2239 12 11.5 12C11.7761 12 12 11.7761 12 11.5V4.70711L14.1464 6.85355C14.3417 7.04882 14.6583 7.04882 14.8536 6.85355Z" fill="#6C707E"/>
<path d="M7.85355 9.14645C8.04882 9.34171 8.04882 9.65829 7.85355 9.85355L4.85355 12.8536C4.65829 13.0488 4.34171 13.0488 4.14645 12.8536L1.14645 9.85355C0.951184 9.65829 0.951184 9.34171 1.14645 9.14645C1.34171 8.95118 1.65829 8.95118 1.85355 9.14645L4 11.2929L4 4.5C4 4.22386 4.22386 4 4.5 4C4.77614 4 5 4.22386 5 4.5V11.2929L7.14645 9.14645C7.34171 8.95118 7.65829 8.95118 7.85355 9.14645Z" fill="#6C707E"/>
</svg>
